<svg viewBox="-55 -55 110 110" xmlns="http://www.w3.org/2000/svg" fill="#ffffff">
  <path d="M 0 0 -47.6 29.3 0 58.5 47.6 29.3 0 0"></path>
  <path d="M -47.6 29.3 -29.3 76 -9.5 46.5 -47.6 29.3"></path>
  <path d="M 47.6 29.3 9.5 46.5 29.3 76 47.6 29.3"></path>
  <path d="M -9.5 46.5 -29.3 76 29.3 76 9.5 46.5"></path>
  <path d="M -47.6 29.3 -9.5 46.5 0 85.1 -47.6 29.3"></path>
  <path d="M 47.6 29.3 0 85.1 9.5 46.5 47.6 29.3"></path>
  <path d="M 0 0 47.6 29.3 9.5 46.5 0 85.1 -9.5 46.5 -47.6 29.3 0 0"></path>
</svg>
