<svg xmlns="http://www.w3.org/2000/svg" version="1.1" xmlns:xlink="http://www.w3.org/1999/xlink" xmlns:svgjs="http://svgjs.dev/svgjs" width="1000" height="623" viewBox="0 0 1000 623"><g transform="matrix(1,0,0,1,-0.6060606060606233,0.2522267206477977)"><svg viewBox="0 0 396 247" data-background-color="#ffffff" preserveAspectRatio="xMidYMid meet" height="623" width="1000" xmlns="http://www.w3.org/2000/svg" xmlns:xlink="http://www.w3.org/1999/xlink"><g id="tight-bounds" transform="matrix(1,0,0,1,0.2400000000000091,-0.09999999999999432)"><svg viewBox="0 0 395.52 247.2" height="247.2" width="395.52"><g><svg></svg></g><g><svg viewBox="0 0 395.52 247.2" height="247.2" width="395.52"><g transform="matrix(1,0,0,1,75.54432,57.87675272388064)"><svg viewBox="0 0 244.43135999999998 131.4464945522387" height="131.4464945522387" width="244.43135999999998"><g><svg viewBox="0 0 244.43135999999998 131.4464945522387" height="131.4464945522387" width="244.43135999999998"><g><svg viewBox="0 0 390.4392387421971 209.96434037067274" height="131.4464945522387" width="244.43135999999998"><g><svg viewBox="0 0 244.43135999999998 209.96434037067274" height="209.96434037067274" width="244.43135999999998"><g id="textblocktransform"><svg viewBox="0 0 244.43135999999998 209.96434037067274" height="209.96434037067274" width="244.43135999999998" id="textblock"><g><svg viewBox="0 0 244.43135999999998 138.5737787076923" height="138.5737787076923" width="244.43135999999998"><g transform="matrix(1,0,0,1,0,0)"><svg width="244.43135999999998" viewBox="2.950000047683716 -36.20000076293945 65 36.85000228881836" height="138.5737787076923" data-palette-color="#FFFFFF"><path d="M22.75-34.45L22.75-34.45 23.9-34.85Q24.55-34.85 24.65-34.45L24.65-34.45Q25.7-28.4 25.7-27.33 25.7-26.25 25-26.25L25-26.25Q24.55-26.25 24.13-27.33 23.7-28.4 23.13-29.3 22.55-30.2 22.3-30.45 22.05-30.7 21-31.65L21-31.65Q18.3-34.05 14.83-34.05 11.35-34.05 9.25-32.55 7.15-31.05 7.15-28.65 7.15-26.25 8.38-24.8 9.6-23.35 11.65-22.55 13.7-21.75 15.95-21.05L15.95-21.05Q22-19.15 24.9-16.1L24.9-16.1Q26.9-13.95 26.9-10.75L26.9-10.75Q26.9-5.5 23.55-2.43 20.2 0.65 15.25 0.65L15.25 0.65Q11.8 0.65 9.7 0.28 7.6-0.1 5.4-1.25L5.4-1.25Q4.75-1.65 3.85-5.15 2.95-8.65 2.95-9.53 2.95-10.4 3.63-10.4 4.3-10.4 4.45-9.9L4.45-9.9Q6.3-5.45 8.8-3.6L8.8-3.6Q11.5-1.55 15.33-1.55 19.15-1.55 21.43-3.53 23.7-5.5 23.7-8.7L23.7-8.7Q23.7-11.05 22.15-12.63 20.6-14.2 18.6-14.9L18.6-14.9Q11.15-17.4 8.5-18.95L8.5-18.95Q3.95-21.65 3.95-26.2 3.95-30.75 7.18-33.43 10.4-36.1 15.55-36.1L15.55-36.1Q17.45-36.1 20.08-35.27 22.7-34.45 22.75-34.45ZM39.25 0.05L35.1 0 30.8 0.2Q29.35 0.2 29.35-0.4L29.35-0.4Q29.35-1.1 30.1-1.35L30.1-1.35Q31.7-1.95 32.9-4.03 34.1-6.1 38.92-16.57 43.75-27.05 47.5-35.05L47.5-35.05Q47.85-35.8 48.12-36 48.4-36.2 48.92-36.2 49.45-36.2 49.6-36 49.75-35.8 50.15-34.65 50.55-33.5 50.77-32.9 51-32.3 51.5-30.95 52-29.6 53.1-26.9 54.2-24.2 58.12-15.08 62.05-5.95 62.65-4.73 63.25-3.5 64.3-2.63 65.35-1.75 66.12-1.68 66.9-1.6 67.42-1.43 67.95-1.25 67.95-0.65L67.95-0.65Q67.95 0.1 66.6 0.1L66.6 0.1 62.1-0.2 57.45 0Q55.9 0 55.47-0.13 55.05-0.25 55.05-0.65 55.05-1.05 55.45-1.28 55.85-1.5 56.3-1.58 56.75-1.65 57.15-2.02 57.55-2.4 57.55-3.28 57.55-4.15 56.3-7.55 55.05-10.95 54.2-12.55L54.2-12.55Q53.75-13.4 52.15-13.4L52.15-13.4 46.1-13.3 43.45-13.3Q41.2-13.3 40.62-13.05 40.05-12.8 39.67-12 39.3-11.2 38.6-9.78 37.9-8.35 37.65-7.8 37.4-7.25 37.05-6.4L37.05-6.4Q36.4-4.9 36.4-3.9 36.4-2.9 36.97-2.3 37.55-1.7 38.25-1.6L38.25-1.6Q40.1-1.45 40.1-0.65L40.1-0.65Q40.1-0.3 39.95-0.13 39.8 0.05 39.25 0.05L39.25 0.05ZM47.15-28.5Q46.7-28.5 44.3-22.98 41.9-17.45 41.9-16.85 41.9-16.25 42.35-16.1 42.8-15.95 44.45-15.95L44.45-15.95 46-15.95 50.75-16Q52.7-16 52.7-16.73 52.7-17.45 50.25-22.98 47.8-28.5 47.15-28.5L47.15-28.5Z" opacity="1" transform="matrix(1,0,0,1,0,0)" fill="#FFFFFF" class="undefined-text-0" data-fill-palette-color="primary" id="text-0"></path></svg></g></svg></g><g transform="matrix(1,0,0,1,0,171.28772208988946)"><svg viewBox="0 0 244.43135999999998 38.67661828078327" height="38.67661828078327" width="244.43135999999998"><g transform="matrix(1,0,0,1,0,0)"><svg width="244.43135999999998" viewBox="1.2000000476837158 -36.54999923706055 294.2099914550781 46.55999755859375" height="38.67661828078327" data-palette-color="#FFFFFF"><path d="M1.2-24.51L1.2-24.51Q1.2-26.68 2.03-28.59 2.86-30.49 4.28-31.92 5.71-33.35 7.62-34.18 9.52-35.01 11.69-35.01L11.69-35.01 27.76-35.01 27.76-28 11.69-28Q10.96-28 10.33-27.73 9.69-27.47 9.22-26.99 8.74-26.51 8.47-25.88 8.2-25.24 8.2-24.51L8.2-24.51Q8.2-23.78 8.47-23.13 8.74-22.49 9.22-22.01 9.69-21.53 10.33-21.26 10.96-21 11.69-21L11.69-21 18.7-21Q20.87-21 22.79-20.18 24.71-19.36 26.14-17.93 27.56-16.5 28.38-14.59 29.2-12.67 29.2-10.5L29.2-10.5Q29.2-8.33 28.38-6.42 27.56-4.52 26.14-3.09 24.71-1.66 22.79-0.83 20.87 0 18.7 0L18.7 0 3.15 0 3.15-7.01 18.7-7.01Q19.43-7.01 20.07-7.28 20.7-7.54 21.18-8.02 21.66-8.5 21.92-9.13 22.19-9.77 22.19-10.5L22.19-10.5Q22.19-11.23 21.92-11.87 21.66-12.5 21.18-12.98 20.7-13.45 20.07-13.72 19.43-13.99 18.7-13.99L18.7-13.99 11.69-13.99Q9.52-13.99 7.62-14.82 5.71-15.65 4.28-17.08 2.86-18.51 2.03-20.42 1.2-22.34 1.2-24.51ZM42.55 10.01L39.13 9.96 39.13 3.25 42.84 3.3Q43.82 3.3 44.72 2.98 45.63 2.66 46.4 2.1 47.17 1.54 47.75 0.77 48.34 0 48.7-0.9L48.7-0.9Q47.6-0.44 46.47 0.02 45.33 0.49 44.19 0.49L44.19 0.49Q41.77 0.49 39.65-0.37 37.52-1.22 35.92-2.8 34.32-4.37 33.41-6.63 32.49-8.89 32.49-11.69L32.49-11.69 32.49-26.15 39.13-26.15 39.13-11.69Q39.13-10.3 39.54-9.27 39.94-8.23 40.62-7.53 41.31-6.84 42.22-6.49 43.14-6.15 44.19-6.15L44.19-6.15Q45.21-6.15 46.13-6.63 47.04-7.1 47.73-7.89 48.41-8.67 48.8-9.66 49.19-10.64 49.19-11.69L49.19-11.69 49.19-26.15 55.91-26.15 55.91-3.3Q55.88-0.54 54.83 1.88 53.78 4.3 51.96 6.1 50.14 7.91 47.73 8.96 45.31 10.01 42.55 10.01L42.55 10.01ZM83.88-21.46L71.38-6.4Q71.77-6.27 72.16-6.24 72.55-6.2 72.94-6.2L72.94-6.2Q73.92-6.2 74.82-6.47 75.73-6.74 76.52-7.24 77.31-7.74 77.94-8.46 78.56-9.18 78.95-10.06L78.95-10.06 83.83-5.15Q82.91-3.83 81.7-2.78 80.49-1.73 79.08-1 77.68-0.27 76.13 0.11 74.58 0.49 72.94 0.49L72.94 0.49Q70.19 0.49 67.76-0.54 65.33-1.56 63.51-3.39 61.69-5.22 60.64-7.75 59.59-10.28 59.59-13.31L59.59-13.31Q59.59-16.41 60.64-18.97 61.69-21.53 63.51-23.34 65.33-25.15 67.76-26.15 70.19-27.15 72.94-27.15L72.94-27.15Q74.58-27.15 76.14-26.76 77.7-26.37 79.11-25.63 80.51-24.9 81.73-23.84 82.95-22.78 83.88-21.46L83.88-21.46ZM67.04-9.84L74.8-20.14Q74.34-20.31 73.88-20.36 73.43-20.41 72.94-20.41L72.94-20.41Q71.58-20.41 70.37-19.91 69.16-19.41 68.27-18.48 67.38-17.55 66.87-16.25 66.35-14.94 66.35-13.31L66.35-13.31Q66.35-12.94 66.39-12.48 66.43-12.01 66.51-11.54 66.6-11.06 66.72-10.62 66.84-10.18 67.04-9.84L67.04-9.84ZM112.3-36.55L112.3 0 110.69 0 108.1-3.59Q107.15-2.73 106.08-1.99 105.02-1.25 103.85-0.7 102.68-0.15 101.45 0.17 100.21 0.49 98.94 0.49L98.94 0.49Q96.18 0.49 93.75-0.55 91.33-1.59 89.51-3.43 87.69-5.27 86.64-7.8 85.59-10.33 85.59-13.31L85.59-13.31Q85.59-16.26 86.64-18.8 87.69-21.34 89.51-23.19 91.33-25.05 93.75-26.1 96.18-27.15 98.94-27.15L98.94-27.15Q99.82-27.15 100.76-27 101.7-26.86 102.59-26.53 103.48-26.2 104.26-25.66 105.05-25.12 105.58-24.34L105.58-24.34 105.58-36.55 112.3-36.55ZM105.58-13.31L105.58-13.31Q105.58-14.67 105.06-15.95 104.53-17.24 103.63-18.23 102.73-19.21 101.52-19.81 100.31-20.41 98.94-20.41L98.94-20.41Q97.58-20.41 96.37-19.92 95.16-19.43 94.27-18.52 93.38-17.6 92.86-16.28 92.35-14.97 92.35-13.31L92.35-13.31Q92.35-11.87 92.86-10.57 93.38-9.28 94.27-8.3 95.16-7.32 96.37-6.76 97.58-6.2 98.94-6.2L98.94-6.2Q100.31-6.2 101.52-6.8 102.73-7.4 103.63-8.39 104.53-9.38 105.06-10.66 105.58-11.94 105.58-13.31ZM138.66-13.99L152.67-13.99 152.67-21Q152.67-22.44 152.12-23.72 151.57-25 150.62-25.95 149.67-26.9 148.39-27.45 147.11-28 145.67-28L145.67-28Q144.23-28 142.94-27.45 141.66-26.9 140.71-25.95 139.76-25 139.21-23.72 138.66-22.44 138.66-21L138.66-21 138.66-13.99ZM159.68-21L159.68 0 152.67 0 152.67-7.01 138.66-7.01 138.66 0 131.68 0 131.68-21Q131.68-23.9 132.78-26.45 133.87-29 135.77-30.91 137.66-32.81 140.21-33.91 142.76-35.01 145.67-35.01L145.67-35.01Q148.57-35.01 151.12-33.91 153.67-32.81 155.58-30.91 157.48-29 158.58-26.45 159.68-23.9 159.68-21L159.68-21ZM171.71-14.4L171.71 0 165.05 0 165.05-26.15 166.66-26.15 168.86-23.05Q170.47-24.51 172.52-25.31 174.57-26.1 176.77-26.1L176.77-26.1 182.65-26.1 182.65-19.46 176.77-19.46Q175.72-19.46 174.79-19.07 173.86-18.68 173.18-17.99 172.49-17.31 172.1-16.38 171.71-15.45 171.71-14.4L171.71-14.4ZM199.81 0L199.81 0 184.58 0 184.58-6.64 199.81-6.64Q200.5-6.64 200.98-7.13 201.47-7.62 201.47-8.3L201.47-8.3Q201.47-9.01 200.98-9.23 200.5-9.45 199.81-9.45L199.81-9.45 192.88-9.45Q191.14-9.45 189.63-10.11 188.12-10.77 186.99-11.9 185.87-13.04 185.22-14.55 184.58-16.06 184.58-17.8L184.58-17.8Q184.58-19.53 185.22-21.04 185.87-22.56 186.99-23.68 188.12-24.8 189.63-25.45 191.14-26.1 192.88-26.1L192.88-26.1 206.38-26.1 206.38-19.46 192.88-19.46Q192.19-19.46 191.71-18.97 191.22-18.48 191.22-17.8L191.22-17.8Q191.22-17.09 191.71-16.59 192.19-16.09 192.88-16.09L192.88-16.09 199.81-16.09Q201.52-16.09 203.03-15.52 204.55-14.94 205.67-13.92 206.79-12.89 207.45-11.45 208.11-10.01 208.11-8.3L208.11-8.3Q208.11-6.57 207.45-5.07 206.79-3.56 205.67-2.43 204.55-1.29 203.03-0.65 201.52 0 199.81 0ZM218.31-14.94L218.31 0 211.65 0 211.65-36.55 218.31-36.55 218.31-25Q219.51-25.9 220.78-26.28 222.05-26.66 223.37-26.66L223.37-26.66Q225.79-26.66 227.91-25.74 230.03-24.83 231.61-23.23 233.18-21.63 234.1-19.49 235.01-17.36 235.01-14.94L235.01-14.94 235.01 0 228.3 0 228.3-14.94 228.35-14.94Q228.35-15.97 227.96-16.88 227.57-17.8 226.88-18.48 226.2-19.17 225.3-19.56 224.39-19.95 223.37-19.95L223.37-19.95Q222.32-19.95 221.39-19.56 220.46-19.17 219.78-18.48 219.1-17.8 218.71-16.88 218.31-15.97 218.31-14.94L218.31-14.94ZM265.07-26.1L265.07 0 263.45 0 260.87-3.59Q259.91-2.73 258.85-1.99 257.79-1.25 256.62-0.7 255.45-0.15 254.21 0.17 252.98 0.49 251.71 0.49L251.71 0.49Q248.95 0.49 246.52-0.44 244.09-1.37 242.27-3.14 240.46-4.91 239.41-7.47 238.36-10.03 238.36-13.31L238.36-13.31Q238.36-16.36 239.41-18.91 240.46-21.46 242.27-23.29 244.09-25.12 246.52-26.14 248.95-27.15 251.71-27.15L251.71-27.15Q252.98-27.15 254.23-26.83 255.47-26.51 256.64-25.95 257.81-25.39 258.88-24.63 259.94-23.88 260.87-23L260.87-23 263.45-26.1 265.07-26.1ZM258.35-13.31L258.35-13.31Q258.35-14.67 257.83-15.95 257.3-17.24 256.4-18.23 255.5-19.21 254.29-19.81 253.08-20.41 251.71-20.41L251.71-20.41Q250.34-20.41 249.14-19.95 247.93-19.48 247.04-18.58 246.14-17.68 245.63-16.35 245.12-15.01 245.12-13.31L245.12-13.31Q245.12-11.6 245.63-10.27 246.14-8.94 247.04-8.03 247.93-7.13 249.14-6.67 250.34-6.2 251.71-6.2L251.71-6.2Q253.08-6.2 254.29-6.8 255.5-7.4 256.4-8.39 257.3-9.38 257.83-10.66 258.35-11.94 258.35-13.31ZM295.41-36.55L295.41 0 293.8 0 291.21-3.59Q290.26-2.73 289.2-1.99 288.13-1.25 286.96-0.7 285.79-0.15 284.56 0.17 283.32 0.49 282.06 0.49L282.06 0.49Q279.3 0.49 276.87-0.55 274.44-1.59 272.62-3.43 270.8-5.27 269.75-7.8 268.7-10.33 268.7-13.31L268.7-13.31Q268.7-16.26 269.75-18.8 270.8-21.34 272.62-23.19 274.44-25.05 276.87-26.1 279.3-27.15 282.06-27.15L282.06-27.15Q282.93-27.15 283.87-27 284.81-26.86 285.7-26.53 286.6-26.2 287.38-25.66 288.16-25.12 288.7-24.34L288.7-24.34 288.7-36.55 295.41-36.55ZM288.7-13.31L288.7-13.31Q288.7-14.67 288.17-15.95 287.65-17.24 286.74-18.23 285.84-19.21 284.63-19.81 283.42-20.41 282.06-20.41L282.06-20.41Q280.69-20.41 279.48-19.92 278.27-19.43 277.38-18.52 276.49-17.6 275.98-16.28 275.46-14.97 275.46-13.31L275.46-13.31Q275.46-11.87 275.98-10.57 276.49-9.28 277.38-8.3 278.27-7.32 279.48-6.76 280.69-6.2 282.06-6.2L282.06-6.2Q283.42-6.2 284.63-6.8 285.84-7.4 286.74-8.39 287.65-9.38 288.17-10.66 288.7-11.94 288.7-13.31Z" opacity="1" transform="matrix(1,0,0,1,0,0)" fill="#FFFFFF" class="undefined-text-1" data-fill-palette-color="secondary" id="text-1"></path></svg></g></svg></g></svg></g></svg></g><g transform="matrix(1,0,0,1,277.14530338219714,54.06901747701513)"><svg viewBox="0 0 113.29393535999998 101.82630541664248" height="101.82630541664248" width="113.29393535999998"><g><svg xmlns="http://www.w3.org/2000/svg" xmlns:xlink="http://www.w3.org/1999/xlink" version="1.1" x="0" y="0" viewBox="0 5.517000198364258 109 97.96700286865234" enable-background="new 0 0 109 109" xml:space="preserve" height="101.82630541664248" width="113.29393535999998" class="icon-icon-0" data-fill-palette-color="accent" id="icon-0"><path fill="#FFFFFF" d="M14.657 12.059c0 1.013-0.821 1.833-1.833 1.833s-1.833-0.821-1.833-1.833 0.821-1.833 1.833-1.833S14.657 11.046 14.657 12.059zM7.99 10.225c-1.013 0-1.833 0.821-1.833 1.833s0.821 1.833 1.833 1.833 1.833-0.821 1.833-1.833S9.002 10.225 7.99 10.225zM17.657 10.225c-1.013 0-1.833 0.821-1.833 1.833s0.821 1.833 1.833 1.833 1.833-0.821 1.833-1.833S18.669 10.225 17.657 10.225zM97.406 10.559H28.99c-0.829 0-1.5 0.671-1.5 1.5s0.671 1.5 1.5 1.5h68.416c0.83 0 1.5-0.671 1.5-1.5S98.236 10.559 97.406 10.559zM99 53.184H67.322v-28.5H99V53.184zM96 27.683H70.322v22.5H96V27.683zM109 10.517v68.667c0 2.761-2.238 5-5 5h-5H67.322h-2.014H50.322v-3h11.986v-53.5H13v2.934c-1.226 0.247-2.277 0.951-3 1.916v-7.849h55.309v56.5h2.014v-26.75H99v26.75h5c1.104 0 2-0.897 2-2V18.517H3v60.667c0 1.103 0.897 2 2 2h2.99v3H5c-2.761 0-5-2.239-5-5V10.517c0-2.761 2.239-5 5-5h99C106.762 5.517 109 7.755 109 10.517zM96 57.434H70.322v23.75H96V57.434zM106 10.517c0-1.103-0.896-2-2-2H5c-1.103 0-2 0.897-2 2v5h103V10.517zM48.072 37.171v61.313c0 2.761-2.238 5-5 5H15.156c-2.761 0-5-2.239-5-5V37.171c0-2.761 2.239-5 5-5h27.916C45.834 32.171 48.072 34.41 48.072 37.171zM13.156 37.171v3.596h31.916v-3.596c0-1.103-0.896-2-2-2H15.156C14.053 35.171 13.156 36.068 13.156 37.171zM39.322 90.017V75.93H18.823v14.086H39.322zM42.322 72.93v17.461h2.75V43.767H13.156v46.625h2.667V72.93H42.322zM45.072 98.484v-5.092H13.156v5.092c0 1.103 0.897 2 2 2h27.916C44.176 100.484 45.072 99.587 45.072 98.484zM29.115 94.808c-1.289 0-2.334 1.045-2.334 2.333s1.045 2.333 2.334 2.333c1.288 0 2.332-1.045 2.332-2.333S30.403 94.808 29.115 94.808zM27.281 38.767h3.666c0.277 0 0.5-0.224 0.5-0.5s-0.223-0.5-0.5-0.5h-3.666c-0.276 0-0.5 0.224-0.5 0.5S27.005 38.767 27.281 38.767zM42.322 71.017H15.823v-22.75h26.499V71.017zM39.322 51.267H18.823v16.75h20.499V51.267z" data-fill-palette-color="accent"></path></svg></g></svg></g></svg></g></svg></g></svg></g><g><path d="M245.816 0c68.262 0 123.6 55.338 123.6 123.6 0 68.262-55.338 123.6-123.6 123.6-39.622 0-74.889-18.643-97.509-47.637h5.012c21.951 26.698 55.236 43.725 92.497 43.725 66.102 0 119.688-53.586 119.688-119.688 0-66.102-53.586-119.688-119.688-119.688-37.261 0-70.546 17.027-92.497 43.725l-5.012 0c22.619-28.993 57.887-47.637 97.509-47.637z" fill="#FFFFFF" stroke="transparent" data-fill-palette-color="tertiary"></path></g></svg></g><defs></defs></svg><rect width="395.52" height="247.2" fill="none" stroke="none" visibility="hidden"></rect></g></svg></g></svg>